<svg width="18" height="15" viewBox="0 0 18 15" fill="none" xmlns="http://www.w3.org/2000/svg">
<path d="M17.9779 7.64238C17.9779 7.74218 17.9382 7.8379 17.8676 7.90847C17.7971 7.97904 17.7014 8.01868 17.6016 8.01868H1.95303L8.08393 14.1496C8.15454 14.2202 8.19421 14.316 8.19421 14.4158C8.19421 14.5157 8.15454 14.6114 8.08393 14.6821C8.01332 14.7527 7.91756 14.7923 7.8177 14.7923C7.71784 14.7923 7.62207 14.7527 7.55146 14.6821L0.778028 7.90861C0.743041 7.87367 0.715285 7.83217 0.696348 7.78648C0.677411 7.7408 0.667664 7.69183 0.667664 7.64238C0.667664 7.59293 0.677411 7.54396 0.696348 7.49828C0.715285 7.4526 0.743041 7.4111 0.778028 7.37615L7.55146 0.602709C7.58643 0.567747 7.62793 0.540013 7.67361 0.521092C7.71929 0.50217 7.76825 0.492432 7.8177 0.492432C7.86714 0.492432 7.9161 0.50217 7.96178 0.521092C8.00746 0.540013 8.04897 0.567747 8.08393 0.602709C8.11889 0.637671 8.14663 0.679178 8.16555 0.724858C8.18447 0.770539 8.19421 0.819499 8.19421 0.868943C8.19421 0.918387 8.18447 0.967347 8.16555 1.01303C8.14663 1.05871 8.11889 1.10021 8.08393 1.13518L1.95303 7.26608H17.6016C17.7014 7.26608 17.7971 7.30572 17.8676 7.37629C17.9382 7.44687 17.9779 7.54258 17.9779 7.64238Z" fill="white"/>
</svg>
