<svg width="44" height="42" viewBox="0 0 44 42" fill="none" xmlns="http://www.w3.org/2000/svg">
<path d="M41.2027 0.0750879L43.1469 2.20747C41.7253 3.46181 40.3456 4.79977 39.0076 6.22136C37.7115 7.64294 36.4989 9.08543 35.37 10.5488C34.2829 11.9704 33.3004 13.392 32.4223 14.8136C31.5443 16.2352 30.8126 17.594 30.2272 18.8902C29.391 20.7717 28.9729 22.7996 28.9729 24.9737C28.9729 27.0225 30.729 28.0469 34.2411 28.0469C36.1226 28.0469 37.7533 28.5486 39.133 29.5521C40.5128 30.5137 41.2027 32.1026 41.2027 34.3186C41.2027 35.4475 41.0146 36.4719 40.6383 37.3917C40.2619 38.3116 39.7393 39.106 39.0703 39.775C38.4013 40.4021 37.6278 40.9039 36.7498 41.2802C35.9136 41.6565 34.9937 41.8446 33.9902 41.8446C30.4781 41.8446 27.9485 40.7575 26.4015 38.5833C24.7708 36.3673 23.9555 33.7123 23.9555 30.6183C23.9555 26.1445 25.4816 21.1898 28.5339 15.7543C30.0809 12.9948 31.8788 10.3189 33.9275 7.72656C36.0181 5.13426 38.4432 2.58377 41.2027 0.0750879ZM17.872 0.0750879L19.8162 2.20747C18.3946 3.46181 17.0148 4.79977 15.6769 6.22136C14.3807 7.64294 13.1682 9.08543 12.0393 10.5488C10.9522 11.9704 9.96963 13.392 9.09159 14.8136C8.21356 16.2352 7.48186 17.594 6.8965 18.8902C6.06027 20.7717 5.64216 22.7996 5.64216 24.9737C5.64216 27.0225 7.39823 28.0469 10.9104 28.0469C12.7919 28.0469 14.4225 28.5486 15.8023 29.5521C17.1821 30.5137 17.872 32.1026 17.872 34.3186C17.872 35.4475 17.6838 36.4719 17.3075 37.3917C16.9312 38.3116 16.4086 39.106 15.7396 39.775C15.0706 40.4021 14.2971 40.9039 13.4191 41.2802C12.5828 41.6565 11.663 41.8446 10.6595 41.8446C7.14737 41.8446 4.61778 40.7575 3.07076 38.5833C1.44012 36.3673 0.624796 33.7123 0.624796 30.6183C0.624796 26.1445 2.15091 21.1898 5.20314 15.7543C6.75016 12.9948 8.54805 10.3189 10.5968 7.72656C12.6874 5.13426 15.1124 2.58377 17.872 0.0750879Z" fill="#232228"/>
</svg>
