<svg width="49" height="35" viewBox="0 0 49 35" fill="none" xmlns="http://www.w3.org/2000/svg">
<path d="M18.3429 0.611211C15.1609 0.627229 12.3637 2.05588 9.64456 3.28882C6.92544 4.52216 4.30444 5.55078 1.41861 5.05663C1.2557 5.03084 1.08927 5.0785 0.964644 5.18633C0.839629 5.29415 0.768921 5.45159 0.770871 5.61685V33.5151C0.77595 33.7866 0.975195 34.0151 1.24359 34.0577C5.58039 34.8004 9.21011 32.5044 12.8299 30.9773C16.4498 29.4501 19.9695 28.5774 24.5393 31.7473C24.7291 31.8766 24.9792 31.8766 25.169 31.7473C29.7387 28.5774 33.2583 29.4501 36.8784 30.9773C40.4979 32.5044 44.1276 34.8004 48.4647 34.0577C48.7331 34.0151 48.9324 33.7866 48.9375 33.5151V5.61685C48.9394 5.4516 48.8687 5.29415 48.7437 5.18633C48.6191 5.07851 48.4526 5.03084 48.2897 5.05663C45.4039 5.55082 42.7829 4.52218 40.0638 3.28882C37.3447 2.05588 34.5475 0.627213 31.3655 0.611211C29.3379 0.601054 27.172 1.19956 24.8545 2.72906C22.537 1.19958 20.3712 0.60111 18.3436 0.611211H18.3429ZM18.3429 1.73124C20.1704 1.72225 22.1105 2.23638 24.2936 3.69167V30.3127C19.791 27.6124 15.8969 28.4664 12.3922 29.9451C8.81636 31.4539 5.54258 33.3713 1.89096 32.9553V6.19518C4.87411 6.50068 7.55722 5.46618 10.1169 4.30516C12.8652 3.05851 15.498 1.74666 18.3429 1.73216V1.73124ZM31.3644 1.73124C34.2092 1.7457 36.842 3.05759 39.5903 4.30424C42.15 5.46527 44.8331 6.49979 47.8163 6.19426V32.9544C44.1647 33.3704 40.8909 31.453 37.3151 29.9442C33.8104 28.4655 29.9162 27.6115 25.4137 30.3118V3.69075C27.5967 2.23548 29.5369 1.72142 31.3644 1.73032V1.73124Z" fill="#A4834E"/>
</svg>
