<svg width="49" height="42" viewBox="0 0 49 42" fill="none" xmlns="http://www.w3.org/2000/svg">
<path d="M15.0237 0.603038C14.8284 0.642894 14.6682 0.785981 14.6038 0.978087L12.6609 6.35272H1.03942C1.02184 6.35193 1.00426 6.35193 0.986678 6.35272C0.69836 6.38062 0.478021 6.62853 0.479192 6.92427V21.3516C0.479192 21.6673 0.730004 21.9231 1.03942 21.9231H2.50951V41.1715C2.50951 41.4871 2.76033 41.743 3.06975 41.743H46.0553C46.3647 41.743 46.6155 41.4871 46.6155 41.1715V21.9231H48.0856C48.395 21.9231 48.6459 21.6673 48.6459 21.3516V6.92427C48.6459 6.6086 48.395 6.35272 48.0856 6.35272H36.4641L34.5213 0.978087C34.4408 0.7533 34.231 0.603436 33.9962 0.603038H15.1288C15.0936 0.59985 15.0585 0.59985 15.0237 0.603038ZM15.5136 1.7461H33.611L35.2737 6.35264H13.8509L15.5136 1.7461ZM1.59985 7.4954H47.5258V20.78H38.7043V18.0841C38.711 17.8115 38.5278 17.5719 38.2668 17.5125C38.2262 17.5081 38.1851 17.5081 38.1445 17.5125H34.1014C33.792 17.5125 33.5411 17.7684 33.5411 18.0841V20.78H15.5838V18.0841C15.5838 17.7684 15.333 17.5125 15.0236 17.5125H10.9805C10.9398 17.5081 10.8988 17.5081 10.8582 17.5125C10.5972 17.5719 10.414 17.8115 10.4206 18.0841V20.78H1.59919L1.59985 7.4954ZM11.5413 18.6557H14.464V23.9944H11.5413V18.6557ZM34.6623 18.6557H37.585V23.9944H34.6623V18.6557ZM3.63031 21.9234H10.4214V24.5659C10.4214 24.8815 10.6718 25.1374 10.9812 25.1374H15.0244C15.3338 25.1374 15.5846 24.8815 15.5846 24.5659V21.9234H33.5419V24.5659C33.5419 24.8815 33.7927 25.1374 34.1021 25.1374H38.1453C38.4547 25.1374 38.7051 24.8815 38.7051 24.5659V21.9234H45.4962V40.6004H3.63077L3.63031 21.9234Z" fill="#A4834E"/>
</svg>
