<svg width="30" height="49" viewBox="0 0 30 49" fill="none" xmlns="http://www.w3.org/2000/svg">
<path d="M16.7668 0.730078C15.2622 1.01209 13.6393 2.22726 11.9024 3.82754C10.1654 5.42782 8.35423 7.43817 6.70505 9.42712C3.4073 13.4049 0.755506 17.2663 0.755506 17.2663C0.645354 17.4261 0.625434 17.6311 0.703164 17.8089L9.15482 36.2874L5.5676 41.0469C5.49182 41.1418 5.44885 41.2582 5.44533 41.3797V48.3264C5.44494 48.478 5.50666 48.6233 5.61524 48.7287C5.72421 48.8342 5.87108 48.8912 6.02263 48.8865C13.2084 48.733 20.3995 48.8162 27.598 48.8865C27.9073 48.8865 28.1581 48.6358 28.1581 48.3264V41.3797C28.1593 41.2601 28.1226 41.1437 28.053 41.0469L24.256 36.025C24.1494 35.8804 23.9803 35.7961 23.801 35.7972C19.2564 35.7976 14.7138 35.7976 10.17 35.7972L1.85815 17.6336C2.1261 17.2469 4.48255 13.8593 7.56241 10.1444C9.19239 8.17855 10.9786 6.1939 12.6546 4.64952C14.04 3.37302 15.304 2.54928 16.3117 2.14741V6.34709C16.3117 6.60254 16.4844 6.82557 16.732 6.88963C19.0022 7.43139 21.7433 8.79108 24.0288 10.3894C26.2079 11.913 27.8973 13.6739 28.5261 14.9566L25.7439 19.0161L18.3418 19.9262C18.136 19.9446 17.9571 20.0754 17.8766 20.2656C17.7961 20.4562 17.827 20.6754 17.9571 20.8359L24.6589 29.5153L23.1539 32.5077C23.0793 32.6405 23.0621 32.7983 23.1062 32.9444C23.1507 33.0901 23.2523 33.2119 23.3882 33.2811C23.5242 33.3502 23.6823 33.3608 23.8265 33.3108C23.9706 33.2604 24.0878 33.1537 24.1515 33.0151L25.8138 29.7079C25.9123 29.5162 25.8919 29.2845 25.7611 29.1131L19.4444 20.9235L26.1462 20.1013C26.3036 20.0778 26.4434 19.9888 26.5313 19.8564L29.6635 15.254C29.7732 15.1021 29.7994 14.9048 29.7334 14.7291C29.0116 13.0026 27.057 11.1445 24.6764 9.47947C22.4292 7.90809 19.8072 6.60779 17.432 5.96214V1.29019C17.4347 1.12146 17.3617 0.960528 17.2328 0.851947C17.1035 0.743365 16.9324 0.69844 16.7668 0.730078ZM10.0825 36.9173H23.5385L27.0382 41.5717V47.7665C20.2192 47.6993 13.3952 47.6325 6.56476 47.7665V42.2192H21.8066C21.9562 42.2212 22.1007 42.1634 22.2074 42.0579C22.3144 41.9528 22.3745 41.8091 22.3745 41.6591C22.3745 41.5095 22.3144 41.3658 22.2074 41.2603C22.1007 41.1552 21.9562 41.097 21.8066 41.0994H6.93273L10.0825 36.9173Z" fill="#A4834E"/>
</svg>
