<svg width="49" height="47" viewBox="0 0 49 47" fill="none" xmlns="http://www.w3.org/2000/svg">
<path d="M23.9271 0.353882C10.9644 0.353882 0.445496 10.7406 0.445496 23.5382C0.445496 36.3357 10.9654 46.7224 23.9271 46.7224C36.8888 46.7224 47.4087 36.3357 47.4087 23.5382C47.4087 23.2403 47.1642 22.9988 46.8625 22.9988H44.2517C44.1054 22.997 43.9645 23.053 43.8605 23.1542C43.7565 23.2553 43.6979 23.3937 43.6979 23.5382C43.6979 23.6826 43.7565 23.821 43.8605 23.9222C43.9645 24.0233 44.1054 24.0794 44.2517 24.0775H46.2652C46.1239 29.764 43.8254 34.9263 40.1389 38.7698L38.6541 37.3207C38.5291 37.1853 38.3425 37.1218 38.1592 37.1522C37.9555 37.1887 37.7901 37.3362 37.7322 37.5325C37.6747 37.7288 37.7341 37.9405 37.8861 38.0789L39.371 39.545C35.4856 43.2187 30.2533 45.5084 24.4736 45.6445V43.555C24.4748 43.3996 24.4077 43.2511 24.29 43.148C24.1723 43.0446 24.0154 42.9965 23.8592 43.016C23.5846 43.0502 23.3792 43.2819 23.3811 43.555V45.6445C17.5954 45.5084 12.3629 43.204 8.46623 39.5281L9.96816 38.079C10.1396 37.9188 10.1876 37.668 10.0866 37.457C9.98529 37.246 9.75865 37.1234 9.52439 37.1523C9.40211 37.1655 9.28783 37.2189 9.20023 37.3043L7.68114 38.753C3.99234 34.9119 1.69196 29.7602 1.55486 24.078H3.637C3.78327 24.0799 3.92383 24.0238 4.0282 23.9226C4.13219 23.8215 4.19085 23.6831 4.19085 23.5386C4.19085 23.3942 4.13219 23.2558 4.0282 23.1547C3.92383 23.0535 3.78327 22.9974 3.637 22.9993H1.55486C1.69427 17.3026 4.00872 12.1505 7.71546 8.30696L9.20032 9.75608C9.30431 9.8565 9.44449 9.91216 9.59038 9.91066C9.73589 9.90915 9.87493 9.85048 9.97663 9.74743C10.0787 9.64476 10.1351 9.50636 10.1332 9.36231C10.1317 9.21864 10.0722 9.08136 9.96825 8.98095L8.50056 7.53184C12.3935 3.87473 17.6125 1.585 23.3813 1.44924V3.50502C23.3794 3.64944 23.4362 3.78822 23.5387 3.89126C23.6411 3.99394 23.7813 4.05186 23.9276 4.05186C24.0739 4.05186 24.214 3.99394 24.3165 3.89126C24.419 3.78822 24.4757 3.64944 24.4738 3.50502V1.44924C33.219 1.67603 41.1957 7.27574 44.7131 14.6589L37.7849 13.109C37.6375 13.0574 37.4752 13.0706 37.3389 13.1451C37.2021 13.2195 37.1042 13.3482 37.0699 13.4986C37.0356 13.6487 37.068 13.8062 37.1587 13.9315C37.2497 14.0567 37.3907 14.1376 37.5457 14.1534L45.7202 15.9733C46.012 16.0361 46.3007 15.8559 46.3685 15.569L48.2285 7.48144C48.2636 7.33025 48.2312 7.17192 48.1398 7.0463C48.0483 6.92068 47.9066 6.83945 47.7508 6.82403C47.4716 6.79206 47.213 6.97409 47.1536 7.24525L45.6177 14.0018C41.7956 6.18165 33.2713 0.354093 23.9274 0.354093L23.9271 0.353882ZM23.8589 9.46931C23.5774 9.50428 23.3698 9.74574 23.3809 10.0252V20.3868C21.858 20.6471 20.6848 21.9627 20.6848 23.5378C20.6848 25.2983 22.1441 26.7391 23.9272 26.7391C24.6208 26.7391 25.2584 26.5026 25.7872 26.1325L31.248 31.5242C31.3455 31.6434 31.4891 31.716 31.6441 31.7243C31.7988 31.7325 31.95 31.6754 32.0593 31.5671C32.169 31.4591 32.227 31.3098 32.2186 31.1571C32.2102 31.004 32.1367 30.8623 32.0159 30.766L26.5722 25.3743C26.9471 24.8523 27.1695 24.2227 27.1695 23.5378C27.1695 21.9628 25.9963 20.6472 24.4734 20.3869V10.0252C24.4795 9.86686 24.4148 9.71378 24.2967 9.60659C24.1782 9.49978 24.0181 9.44938 23.8589 9.46931ZM23.9271 21.4148C25.1197 21.4148 26.0774 22.3603 26.0774 23.5379C26.0774 24.7158 25.1198 25.6609 23.9271 25.6609C22.7344 25.6609 21.7768 24.7158 21.7768 23.5379C21.7768 22.3604 22.7344 21.4148 23.9271 21.4148Z" fill="#A4834E"/>
</svg>
